<svg xmlns="http://www.w3.org/2000/svg" viewBox="0 0 100.71 112.82"><defs><style>.cls-1{fill:#86c3d0;}.cls-2{fill:#fff;}.cls-3{fill:none;stroke:#fff;stroke-miterlimit:10;stroke-width:2px;}</style></defs><g id="API"><path class="cls-1" d="M50.35,14.24a43,43,0,1,0,43.05,43A43,43,0,0,0,50.35,14.24Z"/></g><g id="HOSTING"><path class="cls-2" d="M57.56,88.63H43.15a2.9,2.9,0,0,1-2.9-2.9V76.62a2.89,2.89,0,0,1,2.9-2.89H57.56a2.89,2.89,0,0,1,2.9,2.89v9.11A2.9,2.9,0,0,1,57.56,88.63ZM43.15,76.14a.48.48,0,0,0-.49.48v9.11a.49.49,0,0,0,.49.49H57.56a.49.49,0,0,0,.49-.49V76.62a.48.48,0,0,0-.49-.48Z"/><path class="cls-2" d="M50.35,63.62A7.58,7.58,0,0,0,42.89,70h2.47a5.15,5.15,0,0,1,10.15,1.23v3.74a1.21,1.21,0,1,0,2.41,0V71.19A7.58,7.58,0,0,0,50.35,63.62Z"/><path class="cls-3" d="M26.16,47.43a25.22,25.22,0,0,1,48.39-.31"/><path class="cls-3" d="M32.12,52.8a19,19,0,0,1,36.47-.23"/><path class="cls-3" d="M39.34,56.65a11,11,0,0,1,21.17-.14"/></g></svg>